inDegrees=no
num_controls=7
num_derivatives=13
num_iterations=132
num_multipliers=7
num_parameters=0
num_slacks=7
num_states=26
objective=5.294958
objective_accelerations=0.725275
objective_balance=0.017407
objective_effort=0.176751
objective_height=4.301696
objective_ligament=0.073829
solver_duration=1462.546311
status=Solve_Succeeded
success=true
DataType=double
version=3
OpenSimVersion=4.4-2022-07-23-0e9fedc
endheader
time	/jointset/ground_pelvis/pelvis_tilt/value	/jointset/ground_pelvis/pelvis_tx/value	/jointset/ground_pelvis/pelvis_ty/value	/jointset/hip_l/hip_flexion_l/value	/jointset/hip_l/hip_adduction_l/value	/jointset/hip_l/hip_rotation_l/value	/jointset/back/lumbar_extension/value	/jointset/patellofemoral_l/patellar_flexion_l/value	/jointset/knee_l/knee_flexion_l/value	/jointset/knee_l/knee_adduction_l/value	/jointset/knee_l/knee_rotation_l/value	/jointset/ankle_l/ankle_angle_l/value	/jointset/subtalar_l/subtalar_angle_l/value	/jointset/ground_pelvis/pelvis_tilt/speed	/jointset/ground_pelvis/pelvis_tx/speed	/jointset/ground_pelvis/pelvis_ty/speed	/jointset/hip_l/hip_flexion_l/speed	/jointset/hip_l/hip_adduction_l/speed	/jointset/hip_l/hip_rotation_l/speed	/jointset/back/lumbar_extension/speed	/jointset/patellofemoral_l/patellar_flexion_l/speed	/jointset/knee_l/knee_flexion_l/speed	/jointset/knee_l/knee_adduction_l/speed	/jointset/knee_l/knee_rotation_l/speed	/jointset/ankle_l/ankle_angle_l/speed	/jointset/subtalar_l/subtalar_angle_l/speed	/forceset/tau_hip_flexion_l	/forceset/tau_hip_adduction_l	/forceset/tau_hip_rotation_l	/forceset/tau_knee_flexion_l	/forceset/tau_ankle_angle_l	/forceset/tau_subtalar_angle_l	/forceset/tau_lumbar_extension	lambda_cid13_p0	lambda_cid13_p1	lambda_cid13_p2	lambda_cid13_p3	lambda_cid13_p4	lambda_cid13_p5	lambda_cid14_p0	/jointset/ground_pelvis/pelvis_tilt/accel	/jointset/ground_pelvis/pelvis_tx/accel	/jointset/ground_pelvis/pelvis_ty/accel	/jointset/hip_l/hip_flexion_l/accel	/jointset/hip_l/hip_adduction_l/accel	/jointset/hip_l/hip_rotation_l/accel	/jointset/back/lumbar_extension/accel	/jointset/patellofemoral_l/patellar_flexion_l/accel	/jointset/knee_l/knee_flexion_l/accel	/jointset/knee_l/knee_adduction_l/accel	/jointset/knee_l/knee_rotation_l/accel	/jointset/ankle_l/ankle_angle_l/accel	/jointset/subtalar_l/subtalar_angle_l/accel	gamma_cid13_p0	gamma_cid13_p1	gamma_cid13_p2	gamma_cid13_p3	gamma_cid13_p4	gamma_cid13_p5	gamma_cid14_p0
0.5	-0.2103309429387534	0.03392524783431791	0.7732650247109698	0.9792228822796599	-0.3627974558562245	-0.005462923941038884	-0.4000991962557099	0.9582439561818163	0.9582439561817833	-0.03046604698971294	-0.1745055617227643	0.3179717132560858	0.1662573382720002	-0.732249595048943	-0.16857270887936	-0.5207232236253723	2.365361769028665	0.03896722211584912	0.5257153128918863	-0.3093627426715739	1.997845726588027	1.997845726588054	0.3219556530619535	0.0002972422342758982	0.5309548381778092	0.2780812838867917	-0.09929309279539374	0.02431915974765752	-0.001597344147675047	-0.2026723763673185	0.001190894765747658	0.02009242914716863	0.1135444118615151	-23.39592490815933	-3.873588210803638	-0.5270987318539112	-1.02398287176604	-439.266358937872	-70.30002322708846	-4.899578794534604	0.2702659322060503	0.4027834679129543	-0.4780032881045368	-1.133273830342407	0.08722984715432699	-0.7829907464551579	1.398581074211962	-1.566831543269036	-1.566831543269034	-0.1868192583953252	-0.002796764181190622	-0.8622029897555391	0.08142269033789951	-4.79734647257532e-07	-2.06586158013895e-07	6.718124673761373e-06	3.738566697364472e-07	-1.348114470638802e-06	-1.234647868016214e-06	-8.18533391115943e-07
0.51	-0.2176378076386794	0.03225995114629196	0.768035216482699	1.002814811276789	-0.3624061606163841	-0.000238593770502002	-0.4031237913458099	0.9781403745454488	0.9781403745454498	-0.02726608166192797	-0.1745025607016475	0.323236445053765	0.1690374946339198	-0.7290148687610576	-0.1644659308582655	-0.5251165665988032	2.352695905270829	0.03928805751136304	0.5191073008235447	-0.2955322008257198	1.981152430806538	1.981152430806536	0.3180242772024784	0.000283194073086608	0.5219142382847155	0.2778971922387031	-0.1039560722307826	0.02519232459018299	-0.002114193753644979	-0.2050262879264071	-0.0005706242435319883	0.02065813578114538	0.1171154956944458	-24.10644059631953	-3.914992566577704	-0.6117369728209835	-0.8414973905932254	-442.571615092629	-70.53638750069231	-4.272402894004149	0.3663215400238437	0.417809393312556	-0.4019862043849027	-1.382514909051584	0.002911563570100397	-0.6070116176084843	1.378901918077803	-1.763244282765943	-1.763244282770235	-0.4982032271694723	-0.002399923363858541	-0.9365916674544061	-0.07704532230515022	-4.559459835257643e-07	2.227121919980027e-07	6.680717468420793e-06	4.248706903601493e-07	-1.286948195056252e-06	-7.993154893423053e-07	-7.877070976834639e-07
0.52	-0.2249090759631417	0.03063635912329791	0.7627650775442089	1.026270227184236	-0.3620119767870029	0.004918195243202717	-0.4060093587817897	0.9978613268138554	0.9978613268138453	-0.02410581138824079	-0.1745000383783088	0.3284084502168398	0.1718140660333756	-0.7251303199553863	-0.160231775872981	-0.5287893656692071	2.338059151091112	0.03954494001969631	0.5122070815318029	-0.2815572118476286	1.96275250753796	1.962752507537929	0.3140166422451864	0.0002015026608474552	0.5124095112568925	0.2773642913936972	-0.1086190516661308	0.02606548943262366	-0.002631043359794855	-0.2073801994855221	-0.00233214325284765	0.02122384241498985	0.1206865795274309	-24.81081787619706	-3.966073723740133	-0.6850033937264793	-0.7052002250723076	-445.791867985264	-70.88803992079558	-3.694483254316549	0.4002304357633833	0.4282588607509615	-0.3338945074991412	-1.527451914718639	0.07443926971798664	-0.8414321911355591	1.427470500659421	-1.908157040686653	-1.908157040686607	-0.2020710779587325	-0.01632541439171292	-0.9550284167014111	0.01166085095418779	-4.260805293945351e-07	6.94114190137842e-07	6.583526432032267e-06	4.777059725425119e-07	-1.212928237990449e-06	-3.239342012354712e-07	-7.465779452048727e-07
0.53	-0.2321386288629186	0.02905575065538181	0.7574618312881231	1.049569929568944	-0.3616151220458423	0.010005143860282	-0.4087543519622295	1.017390090497591	1.017390090497541	-0.0209857779706294	-0.1744979470552228	0.3334834158331353	0.1745841802900543	-0.7206899222368752	-0.1558673535337156	-0.531733375971592	2.321564332923606	0.03982650096614172	0.5051187118416378	-0.2674283262920624	1.942725256682073	1.942725256682048	0.3100009371111801	0.0001948115490692824	0.5025250681404516	0.2766167575717307	-0.1129793159179239	0.02674956764691565	-0.002992831249011128	-0.2104865054389251	-0.003199657339542723	0.02148826163321617	0.1240367419619839	-25.268283798713	-3.871536354763199	-0.8477409542879093	-0.7446773395540859	-449.1976772234684	-71.07840155889551	-3.164762685893606	0.4794783337092551	0.4440196385065276	-0.255912665014808	-1.758088954505085	0.004027960212210667	-0.6528171157158725	1.407562275040917	-2.091109992039995	-2.09110999203913	-0.4995344593187218	0.005144561988387071	-1.013903297300491	-0.1251592873918379	-3.999635768582069e-07	1.010360761219785e-06	6.446334577447034e-06	5.092175203044925e-07	-1.142691606001075e-06	5.62154640718719e-08	-7.136818572661768e-07
